<svg width="1032" height="201" viewBox="0 0 1032 201" fill="none" xmlns="http://www.w3.org/2000/svg">
<path d="M202.679 16.696V39H199.767V28.888H188.407V39H185.495V16.696H188.407V26.488H199.767V16.696H202.679ZM209.156 18.616C208.601 18.616 208.132 18.424 207.748 18.04C207.364 17.656 207.172 17.1867 207.172 16.632C207.172 16.0773 207.364 15.608 207.748 15.224C208.132 14.84 208.601 14.648 209.156 14.648C209.689 14.648 210.137 14.84 210.5 15.224C210.884 15.608 211.076 16.0773 211.076 16.632C211.076 17.1867 210.884 17.656 210.5 18.04C210.137 18.424 209.689 18.616 209.156 18.616ZM210.564 21.464V39H207.652V21.464H210.564ZM219.303 16.696L218.951 32.696H216.519L216.167 16.696H219.303ZM217.863 39.192C217.308 39.192 216.839 39 216.455 38.616C216.071 38.232 215.879 37.7627 215.879 37.208C215.879 36.6533 216.071 36.184 216.455 35.8C216.839 35.416 217.308 35.224 217.863 35.224C218.396 35.224 218.844 35.416 219.207 35.8C219.591 36.184 219.783 36.6533 219.783 37.208C219.783 37.7627 219.591 38.232 219.207 38.616C218.844 39 218.396 39.192 217.863 39.192ZM236.501 16.696V39H233.589V16.696H236.501ZM248.907 30.168C248.907 28.376 249.27 26.808 249.995 25.464C250.721 24.0987 251.713 23.0427 252.971 22.296C254.251 21.5493 255.67 21.176 257.227 21.176C258.763 21.176 260.097 21.5067 261.227 22.168C262.358 22.8293 263.201 23.6613 263.755 24.664V21.464H266.699V39H263.755V35.736C263.179 36.76 262.315 37.6133 261.163 38.296C260.033 38.9573 258.71 39.288 257.195 39.288C255.638 39.288 254.23 38.904 252.971 38.136C251.713 37.368 250.721 36.2907 249.995 34.904C249.27 33.5173 248.907 31.9387 248.907 30.168ZM263.755 30.2C263.755 28.8773 263.489 27.7253 262.955 26.744C262.422 25.7627 261.697 25.016 260.779 24.504C259.883 23.9707 258.891 23.704 257.803 23.704C256.715 23.704 255.723 23.96 254.827 24.472C253.931 24.984 253.217 25.7307 252.683 26.712C252.15 27.6933 251.883 28.8453 251.883 30.168C251.883 31.512 252.15 32.6853 252.683 33.688C253.217 34.6693 253.931 35.4267 254.827 35.96C255.723 36.472 256.715 36.728 257.803 36.728C258.891 36.728 259.883 36.472 260.779 35.96C261.697 35.4267 262.422 34.6693 262.955 33.688C263.489 32.6853 263.755 31.5227 263.755 30.2ZM292.708 21.144C294.074 21.144 295.29 21.432 296.356 22.008C297.423 22.5627 298.266 23.4053 298.884 24.536C299.503 25.6667 299.812 27.0427 299.812 28.664V39H296.932V29.08C296.932 27.3307 296.495 25.9973 295.62 25.08C294.767 24.1413 293.604 23.672 292.132 23.672C290.618 23.672 289.412 24.1627 288.516 25.144C287.62 26.104 287.172 27.5013 287.172 29.336V39H284.292V29.08C284.292 27.3307 283.855 25.9973 282.98 25.08C282.127 24.1413 280.964 23.672 279.492 23.672C277.978 23.672 276.772 24.1627 275.876 25.144C274.98 26.104 274.532 27.5013 274.532 29.336V39H271.62V21.464H274.532V23.992C275.108 23.0747 275.876 22.3707 276.836 21.88C277.818 21.3893 278.895 21.144 280.068 21.144C281.54 21.144 282.842 21.4747 283.972 22.136C285.103 22.7973 285.946 23.768 286.5 25.048C286.991 23.8107 287.802 22.8507 288.932 22.168C290.063 21.4853 291.322 21.144 292.708 21.144ZM330.016 23.16C329.398 21.8587 328.502 20.856 327.328 20.152C326.155 19.4267 324.79 19.064 323.232 19.064C321.675 19.064 320.267 19.4267 319.008 20.152C317.771 20.856 316.79 21.88 316.064 23.224C315.36 24.5467 315.008 26.0827 315.008 27.832C315.008 29.5813 315.36 31.1173 316.064 32.44C316.79 33.7627 317.771 34.7867 319.008 35.512C320.267 36.216 321.675 36.568 323.232 36.568C325.408 36.568 327.2 35.9173 328.608 34.616C330.016 33.3147 330.838 31.5547 331.072 29.336H322.176V26.968H334.176V29.208C334.006 31.0427 333.43 32.728 332.448 34.264C331.467 35.7787 330.176 36.984 328.576 37.88C326.976 38.7547 325.195 39.192 323.232 39.192C321.163 39.192 319.275 38.712 317.568 37.752C315.862 36.7707 314.507 35.416 313.504 33.688C312.523 31.96 312.032 30.008 312.032 27.832C312.032 25.656 312.523 23.704 313.504 21.976C314.507 20.2267 315.862 18.872 317.568 17.912C319.275 16.9307 321.163 16.44 323.232 16.44C325.6 16.44 327.691 17.0267 329.504 18.2C331.339 19.3733 332.672 21.0267 333.504 23.16H330.016ZM336.939 30.168C336.939 28.376 337.301 26.808 338.027 25.464C338.752 24.0987 339.744 23.0427 341.003 22.296C342.283 21.5493 343.701 21.176 345.259 21.176C346.795 21.176 348.128 21.5067 349.259 22.168C350.389 22.8293 351.232 23.6613 351.787 24.664V21.464H354.731V39H351.787V35.736C351.211 36.76 350.347 37.6133 349.195 38.296C348.064 38.9573 346.741 39.288 345.227 39.288C343.669 39.288 342.261 38.904 341.003 38.136C339.744 37.368 338.752 36.2907 338.027 34.904C337.301 33.5173 336.939 31.9387 336.939 30.168ZM351.787 30.2C351.787 28.8773 351.52 27.7253 350.987 26.744C350.453 25.7627 349.728 25.016 348.811 24.504C347.915 23.9707 346.923 23.704 345.835 23.704C344.747 23.704 343.755 23.96 342.859 24.472C341.963 24.984 341.248 25.7307 340.715 26.712C340.181 27.6933 339.915 28.8453 339.915 30.168C339.915 31.512 340.181 32.6853 340.715 33.688C341.248 34.6693 341.963 35.4267 342.859 35.96C343.755 36.472 344.747 36.728 345.835 36.728C346.923 36.728 347.915 36.472 348.811 35.96C349.728 35.4267 350.453 34.6693 350.987 33.688C351.52 32.6853 351.787 31.5227 351.787 30.2ZM374.756 21.464L364.196 47.256H361.188L364.644 38.808L357.572 21.464H360.804L366.308 35.672L371.748 21.464H374.756ZM376.595 30.168C376.595 28.376 376.957 26.808 377.683 25.464C378.408 24.0987 379.4 23.0427 380.659 22.296C381.939 21.5493 383.357 21.176 384.915 21.176C386.451 21.176 387.784 21.5067 388.915 22.168C390.045 22.8293 390.888 23.6613 391.443 24.664V21.464H394.387V39H391.443V35.736C390.867 36.76 390.003 37.6133 388.851 38.296C387.72 38.9573 386.397 39.288 384.883 39.288C383.325 39.288 381.917 38.904 380.659 38.136C379.4 37.368 378.408 36.2907 377.683 34.904C376.957 33.5173 376.595 31.9387 376.595 30.168ZM391.443 30.2C391.443 28.8773 391.176 27.7253 390.643 26.744C390.109 25.7627 389.384 25.016 388.467 24.504C387.571 23.9707 386.579 23.704 385.491 23.704C384.403 23.704 383.411 23.96 382.515 24.472C381.619 24.984 380.904 25.7307 380.371 26.712C379.837 27.6933 379.571 28.8453 379.571 30.168C379.571 31.512 379.837 32.6853 380.371 33.688C380.904 34.6693 381.619 35.4267 382.515 35.96C383.411 36.472 384.403 36.728 385.491 36.728C386.579 36.728 387.571 36.472 388.467 35.96C389.384 35.4267 390.109 34.6693 390.643 33.688C391.176 32.6853 391.443 31.5227 391.443 30.2ZM402.86 23.864V34.2C402.86 35.0533 403.041 35.6613 403.404 36.024C403.766 36.3653 404.396 36.536 405.292 36.536H407.436V39H404.812C403.19 39 401.974 38.6267 401.164 37.88C400.353 37.1333 399.948 35.9067 399.948 34.2V23.864H397.676V21.464H399.948V17.048H402.86V21.464H407.436V23.864H402.86ZM413.876 24.312C414.388 23.3093 415.113 22.5307 416.052 21.976C417.012 21.4213 418.175 21.144 419.54 21.144V24.152H418.772C415.508 24.152 413.876 25.9227 413.876 29.464V39H410.964V21.464H413.876V24.312ZM424.406 18.616C423.851 18.616 423.382 18.424 422.998 18.04C422.614 17.656 422.422 17.1867 422.422 16.632C422.422 16.0773 422.614 15.608 422.998 15.224C423.382 14.84 423.851 14.648 424.406 14.648C424.939 14.648 425.387 14.84 425.75 15.224C426.134 15.608 426.326 16.0773 426.326 16.632C426.326 17.1867 426.134 17.656 425.75 18.04C425.387 18.424 424.939 18.616 424.406 18.616ZM425.814 21.464V39H422.902V21.464H425.814ZM431.705 39.192C431.15 39.192 430.681 39 430.297 38.616C429.913 38.232 429.721 37.7627 429.721 37.208C429.721 36.6533 429.913 36.184 430.297 35.8C430.681 35.416 431.15 35.224 431.705 35.224C432.238 35.224 432.686 35.416 433.049 35.8C433.433 36.184 433.625 36.6533 433.625 37.208C433.625 37.7627 433.433 38.232 433.049 38.616C432.686 39 432.238 39.192 431.705 39.192ZM448.939 16.696V39H446.027V16.696H448.939ZM461.345 30.168C461.345 28.376 461.707 26.808 462.433 25.464C463.158 24.0987 464.15 23.0427 465.409 22.296C466.689 21.5493 468.107 21.176 469.665 21.176C471.201 21.176 472.534 21.5067 473.665 22.168C474.795 22.8293 475.638 23.6613 476.193 24.664V21.464H479.137V39H476.193V35.736C475.617 36.76 474.753 37.6133 473.601 38.296C472.47 38.9573 471.147 39.288 469.633 39.288C468.075 39.288 466.667 38.904 465.409 38.136C464.15 37.368 463.158 36.2907 462.433 34.904C461.707 33.5173 461.345 31.9387 461.345 30.168ZM476.193 30.2C476.193 28.8773 475.926 27.7253 475.393 26.744C474.859 25.7627 474.134 25.016 473.217 24.504C472.321 23.9707 471.329 23.704 470.241 23.704C469.153 23.704 468.161 23.96 467.265 24.472C466.369 24.984 465.654 25.7307 465.121 26.712C464.587 27.6933 464.321 28.8453 464.321 30.168C464.321 31.512 464.587 32.6853 465.121 33.688C465.654 34.6693 466.369 35.4267 467.265 35.96C468.161 36.472 469.153 36.728 470.241 36.728C471.329 36.728 472.321 36.472 473.217 35.96C474.134 35.4267 474.859 34.6693 475.393 33.688C475.926 32.6853 476.193 31.5227 476.193 30.2ZM505.146 21.144C506.511 21.144 507.727 21.432 508.794 22.008C509.86 22.5627 510.703 23.4053 511.322 24.536C511.94 25.6667 512.25 27.0427 512.25 28.664V39H509.37V29.08C509.37 27.3307 508.932 25.9973 508.058 25.08C507.204 24.1413 506.042 23.672 504.57 23.672C503.055 23.672 501.85 24.1627 500.954 25.144C500.058 26.104 499.61 27.5013 499.61 29.336V39H496.73V29.08C496.73 27.3307 496.292 25.9973 495.418 25.08C494.564 24.1413 493.402 23.672 491.93 23.672C490.415 23.672 489.21 24.1627 488.314 25.144C487.418 26.104 486.97 27.5013 486.97 29.336V39H484.058V21.464H486.97V23.992C487.546 23.0747 488.314 22.3707 489.274 21.88C490.255 21.3893 491.332 21.144 492.506 21.144C493.978 21.144 495.279 21.4747 496.41 22.136C497.54 22.7973 498.383 23.768 498.938 25.048C499.428 23.8107 500.239 22.8507 501.37 22.168C502.5 21.4853 503.759 21.144 505.146 21.144ZM524.47 30.168C524.47 28.376 524.832 26.808 525.558 25.464C526.283 24.0987 527.275 23.0427 528.534 22.296C529.814 21.5493 531.232 21.176 532.79 21.176C534.326 21.176 535.659 21.5067 536.79 22.168C537.92 22.8293 538.763 23.6613 539.318 24.664V21.464H542.262V39H539.318V35.736C538.742 36.76 537.878 37.6133 536.726 38.296C535.595 38.9573 534.272 39.288 532.758 39.288C531.2 39.288 529.792 38.904 528.534 38.136C527.275 37.368 526.283 36.2907 525.558 34.904C524.832 33.5173 524.47 31.9387 524.47 30.168ZM539.318 30.2C539.318 28.8773 539.051 27.7253 538.518 26.744C537.984 25.7627 537.259 25.016 536.342 24.504C535.446 23.9707 534.454 23.704 533.366 23.704C532.278 23.704 531.286 23.96 530.39 24.472C529.494 24.984 528.779 25.7307 528.246 26.712C527.712 27.6933 527.446 28.8453 527.446 30.168C527.446 31.512 527.712 32.6853 528.246 33.688C528.779 34.6693 529.494 35.4267 530.39 35.96C531.286 36.472 532.278 36.728 533.366 36.728C534.454 36.728 535.446 36.472 536.342 35.96C537.259 35.4267 537.984 34.6693 538.518 33.688C539.051 32.6853 539.318 31.5227 539.318 30.2ZM570.626 23.224C570.626 25.08 569.986 26.6267 568.706 27.864C567.447 29.08 565.517 29.688 562.914 29.688H558.626V39H555.714V16.696H562.914C565.431 16.696 567.341 17.304 568.642 18.52C569.965 19.736 570.626 21.304 570.626 23.224ZM562.914 27.288C564.535 27.288 565.73 26.936 566.498 26.232C567.266 25.528 567.65 24.5253 567.65 23.224C567.65 20.472 566.071 19.096 562.914 19.096H558.626V27.288H562.914ZM577.157 24.312C577.669 23.3093 578.395 22.5307 579.333 21.976C580.293 21.4213 581.456 21.144 582.821 21.144V24.152H582.053C578.789 24.152 577.157 25.9227 577.157 29.464V39H574.245V21.464H577.157V24.312ZM593.831 39.288C592.188 39.288 590.695 38.9147 589.351 38.168C588.028 37.4213 586.983 36.3653 586.215 35C585.468 33.6133 585.095 32.0133 585.095 30.2C585.095 28.408 585.479 26.8293 586.247 25.464C587.036 24.0773 588.103 23.0213 589.447 22.296C590.791 21.5493 592.295 21.176 593.959 21.176C595.623 21.176 597.127 21.5493 598.471 22.296C599.815 23.0213 600.871 24.0667 601.639 25.432C602.428 26.7973 602.823 28.3867 602.823 30.2C602.823 32.0133 602.417 33.6133 601.607 35C600.817 36.3653 599.74 37.4213 598.375 38.168C597.009 38.9147 595.495 39.288 593.831 39.288ZM593.831 36.728C594.876 36.728 595.857 36.4827 596.775 35.992C597.692 35.5013 598.428 34.7653 598.983 33.784C599.559 32.8027 599.847 31.608 599.847 30.2C599.847 28.792 599.569 27.5973 599.015 26.616C598.46 25.6347 597.735 24.9093 596.839 24.44C595.943 23.9493 594.972 23.704 593.927 23.704C592.86 23.704 591.879 23.9493 590.983 24.44C590.108 24.9093 589.404 25.6347 588.871 26.616C588.337 27.5973 588.071 28.792 588.071 30.2C588.071 31.6293 588.327 32.8347 588.839 33.816C589.372 34.7973 590.076 35.5333 590.951 36.024C591.825 36.4933 592.785 36.728 593.831 36.728ZM605.564 30.168C605.564 28.376 605.926 26.808 606.652 25.464C607.377 24.0987 608.369 23.0427 609.628 22.296C610.908 21.5493 612.337 21.176 613.916 21.176C615.281 21.176 616.55 21.496 617.724 22.136C618.897 22.7547 619.793 23.576 620.412 24.6V15.32H623.356V39H620.412V35.704C619.836 36.7493 618.982 37.6133 617.852 38.296C616.721 38.9573 615.398 39.288 613.884 39.288C612.326 39.288 610.908 38.904 609.628 38.136C608.369 37.368 607.377 36.2907 606.652 34.904C605.926 33.5173 605.564 31.9387 605.564 30.168ZM620.412 30.2C620.412 28.8773 620.145 27.7253 619.612 26.744C619.078 25.7627 618.353 25.016 617.436 24.504C616.54 23.9707 615.548 23.704 614.46 23.704C613.372 23.704 612.38 23.96 611.484 24.472C610.588 24.984 609.873 25.7307 609.34 26.712C608.806 27.6933 608.54 28.8453 608.54 30.168C608.54 31.512 608.806 32.6853 609.34 33.688C609.873 34.6693 610.588 35.4267 611.484 35.96C612.38 36.472 613.372 36.728 614.46 36.728C615.548 36.728 616.54 36.472 617.436 35.96C618.353 35.4267 619.078 34.6693 619.612 33.688C620.145 32.6853 620.412 31.5227 620.412 30.2ZM643.829 21.464V39H640.917V36.408C640.362 37.304 639.583 38.008 638.581 38.52C637.599 39.0107 636.511 39.256 635.317 39.256C633.951 39.256 632.725 38.9787 631.637 38.424C630.549 37.848 629.685 36.9947 629.045 35.864C628.426 34.7333 628.117 33.3573 628.117 31.736V21.464H630.997V31.352C630.997 33.08 631.434 34.4133 632.309 35.352C633.183 36.2693 634.378 36.728 635.893 36.728C637.45 36.728 638.677 36.248 639.573 35.288C640.469 34.328 640.917 32.9307 640.917 31.096V21.464H643.829ZM647.657 30.2C647.657 28.3867 648.02 26.808 648.745 25.464C649.471 24.0987 650.473 23.0427 651.753 22.296C653.055 21.5493 654.537 21.176 656.201 21.176C658.356 21.176 660.127 21.6987 661.513 22.744C662.921 23.7893 663.849 25.24 664.297 27.096H661.161C660.863 26.0293 660.276 25.1867 659.401 24.568C658.548 23.9493 657.481 23.64 656.201 23.64C654.537 23.64 653.193 24.216 652.169 25.368C651.145 26.4987 650.633 28.1093 650.633 30.2C650.633 32.312 651.145 33.944 652.169 35.096C653.193 36.248 654.537 36.824 656.201 36.824C657.481 36.824 658.548 36.5253 659.401 35.928C660.255 35.3307 660.841 34.4773 661.161 33.368H664.297C663.828 35.16 662.889 36.6 661.481 37.688C660.073 38.7547 658.313 39.288 656.201 39.288C654.537 39.288 653.055 38.9147 651.753 38.168C650.473 37.4213 649.471 36.3653 648.745 35C648.02 33.6347 647.657 32.0347 647.657 30.2ZM671.735 23.864V34.2C671.735 35.0533 671.916 35.6613 672.279 36.024C672.641 36.3653 673.271 36.536 674.167 36.536H676.311V39H673.687C672.065 39 670.849 38.6267 670.039 37.88C669.228 37.1333 668.823 35.9067 668.823 34.2V23.864H666.551V21.464H668.823V17.048H671.735V21.464H676.311V23.864H671.735ZM687.282 30.168C687.282 28.376 687.645 26.808 688.37 25.464C689.096 24.0987 690.088 23.0427 691.346 22.296C692.626 21.5493 694.056 21.176 695.634 21.176C697 21.176 698.269 21.496 699.442 22.136C700.616 22.7547 701.512 23.576 702.13 24.6V15.32H705.074V39H702.13V35.704C701.554 36.7493 700.701 37.6133 699.57 38.296C698.44 38.9573 697.117 39.288 695.602 39.288C694.045 39.288 692.626 38.904 691.346 38.136C690.088 37.368 689.096 36.2907 688.37 34.904C687.645 33.5173 687.282 31.9387 687.282 30.168ZM702.13 30.2C702.13 28.8773 701.864 27.7253 701.33 26.744C700.797 25.7627 700.072 25.016 699.154 24.504C698.258 23.9707 697.266 23.704 696.178 23.704C695.09 23.704 694.098 23.96 693.202 24.472C692.306 24.984 691.592 25.7307 691.058 26.712C690.525 27.6933 690.258 28.8453 690.258 30.168C690.258 31.512 690.525 32.6853 691.058 33.688C691.592 34.6693 692.306 35.4267 693.202 35.96C694.098 36.472 695.09 36.728 696.178 36.728C697.266 36.728 698.258 36.472 699.154 35.96C700.072 35.4267 700.797 34.6693 701.33 33.688C701.864 32.6853 702.13 31.5227 702.13 30.2ZM725.995 29.56C725.995 30.1147 725.963 30.7013 725.899 31.32H711.883C711.99 33.048 712.577 34.4027 713.643 35.384C714.731 36.344 716.043 36.824 717.579 36.824C718.838 36.824 719.883 36.536 720.715 35.96C721.569 35.3627 722.166 34.5733 722.507 33.592H725.643C725.174 35.2773 724.235 36.6533 722.827 37.72C721.419 38.7653 719.67 39.288 717.579 39.288C715.915 39.288 714.422 38.9147 713.099 38.168C711.798 37.4213 710.774 36.3653 710.027 35C709.281 33.6133 708.907 32.0133 708.907 30.2C708.907 28.3867 709.27 26.7973 709.995 25.432C710.721 24.0667 711.734 23.0213 713.035 22.296C714.358 21.5493 715.873 21.176 717.579 21.176C719.243 21.176 720.715 21.5387 721.995 22.264C723.275 22.9893 724.257 23.992 724.939 25.272C725.643 26.5307 725.995 27.96 725.995 29.56ZM722.987 28.952C722.987 27.8427 722.742 26.8933 722.251 26.104C721.761 25.2933 721.089 24.6853 720.235 24.28C719.403 23.8533 718.475 23.64 717.451 23.64C715.979 23.64 714.721 24.1093 713.675 25.048C712.651 25.9867 712.065 27.288 711.915 28.952H722.987ZM736.047 39.288C734.703 39.288 733.498 39.064 732.431 38.616C731.364 38.1467 730.522 37.5067 729.903 36.696C729.284 35.864 728.943 34.9147 728.879 33.848H731.887C731.972 34.7227 732.378 35.4373 733.103 35.992C733.85 36.5467 734.82 36.824 736.015 36.824C737.124 36.824 737.999 36.5787 738.639 36.088C739.279 35.5973 739.599 34.9787 739.599 34.232C739.599 33.464 739.258 32.8987 738.575 32.536C737.892 32.152 736.836 31.7787 735.407 31.416C734.106 31.0747 733.039 30.7333 732.207 30.392C731.396 30.0293 730.692 29.5067 730.095 28.824C729.519 28.12 729.231 27.2027 729.231 26.072C729.231 25.176 729.498 24.3547 730.031 23.608C730.564 22.8613 731.322 22.2747 732.303 21.848C733.284 21.4 734.404 21.176 735.663 21.176C737.604 21.176 739.172 21.6667 740.367 22.648C741.562 23.6293 742.202 24.9733 742.287 26.68H739.375C739.311 25.7627 738.938 25.0267 738.255 24.472C737.594 23.9173 736.698 23.64 735.567 23.64C734.522 23.64 733.69 23.864 733.071 24.312C732.452 24.76 732.143 25.3467 732.143 26.072C732.143 26.648 732.324 27.128 732.687 27.512C733.071 27.8747 733.54 28.1733 734.095 28.408C734.671 28.6213 735.46 28.8667 736.463 29.144C737.722 29.4853 738.746 29.8267 739.535 30.168C740.324 30.488 740.996 30.9787 741.551 31.64C742.127 32.3013 742.426 33.1653 742.447 34.232C742.447 35.192 742.18 36.056 741.647 36.824C741.114 37.592 740.356 38.2 739.375 38.648C738.415 39.0747 737.306 39.288 736.047 39.288ZM748.062 18.616C747.507 18.616 747.038 18.424 746.654 18.04C746.27 17.656 746.078 17.1867 746.078 16.632C746.078 16.0773 746.27 15.608 746.654 15.224C747.038 14.84 747.507 14.648 748.062 14.648C748.595 14.648 749.043 14.84 749.406 15.224C749.79 15.608 749.982 16.0773 749.982 16.632C749.982 17.1867 749.79 17.656 749.406 18.04C749.043 18.424 748.595 18.616 748.062 18.616ZM749.47 21.464V39H746.558V21.464H749.47ZM761.665 21.176C763.179 21.176 764.502 21.5067 765.633 22.168C766.785 22.8293 767.638 23.6613 768.193 24.664V21.464H771.137V39.384C771.137 40.984 770.795 42.4027 770.113 43.64C769.43 44.8987 768.449 45.88 767.169 46.584C765.91 47.288 764.438 47.64 762.753 47.64C760.449 47.64 758.529 47.096 756.993 46.008C755.457 44.92 754.55 43.4373 754.273 41.56H757.153C757.473 42.6267 758.134 43.48 759.137 44.12C760.139 44.7813 761.345 45.112 762.753 45.112C764.353 45.112 765.654 44.6107 766.657 43.608C767.681 42.6053 768.193 41.1973 768.193 39.384V35.704C767.617 36.728 766.763 37.5813 765.633 38.264C764.502 38.9467 763.179 39.288 761.665 39.288C760.107 39.288 758.689 38.904 757.409 38.136C756.15 37.368 755.158 36.2907 754.433 34.904C753.707 33.5173 753.345 31.9387 753.345 30.168C753.345 28.376 753.707 26.808 754.433 25.464C755.158 24.0987 756.15 23.0427 757.409 22.296C758.689 21.5493 760.107 21.176 761.665 21.176ZM768.193 30.2C768.193 28.8773 767.926 27.7253 767.393 26.744C766.859 25.7627 766.134 25.016 765.217 24.504C764.321 23.9707 763.329 23.704 762.241 23.704C761.153 23.704 760.161 23.96 759.265 24.472C758.369 24.984 757.654 25.7307 757.121 26.712C756.587 27.6933 756.321 28.8453 756.321 30.168C756.321 31.512 756.587 32.6853 757.121 33.688C757.654 34.6693 758.369 35.4267 759.265 35.96C760.161 36.472 761.153 36.728 762.241 36.728C763.329 36.728 764.321 36.472 765.217 35.96C766.134 35.4267 766.859 34.6693 767.393 33.688C767.926 32.6853 768.193 31.5227 768.193 30.2ZM784.602 21.144C786.735 21.144 788.463 21.7947 789.786 23.096C791.108 24.376 791.77 26.232 791.77 28.664V39H788.89V29.08C788.89 27.3307 788.452 25.9973 787.578 25.08C786.703 24.1413 785.508 23.672 783.994 23.672C782.458 23.672 781.231 24.152 780.314 25.112C779.418 26.072 778.97 27.4693 778.97 29.304V39H776.058V21.464H778.97V23.96C779.546 23.064 780.324 22.3707 781.306 21.88C782.308 21.3893 783.407 21.144 784.602 21.144ZM812.527 29.56C812.527 30.1147 812.495 30.7013 812.431 31.32H798.415C798.521 33.048 799.108 34.4027 800.175 35.384C801.263 36.344 802.575 36.824 804.111 36.824C805.369 36.824 806.415 36.536 807.247 35.96C808.1 35.3627 808.697 34.5733 809.039 33.592H812.175C811.705 35.2773 810.767 36.6533 809.359 37.72C807.951 38.7653 806.201 39.288 804.111 39.288C802.447 39.288 800.953 38.9147 799.631 38.168C798.329 37.4213 797.305 36.3653 796.559 35C795.812 33.6133 795.439 32.0133 795.439 30.2C795.439 28.3867 795.801 26.7973 796.527 25.432C797.252 24.0667 798.265 23.0213 799.567 22.296C800.889 21.5493 802.404 21.176 804.111 21.176C805.775 21.176 807.247 21.5387 808.527 22.264C809.807 22.9893 810.788 23.992 811.471 25.272C812.175 26.5307 812.527 27.96 812.527 29.56ZM809.519 28.952C809.519 27.8427 809.273 26.8933 808.783 26.104C808.292 25.2933 807.62 24.6853 806.767 24.28C805.935 23.8533 805.007 23.64 803.983 23.64C802.511 23.64 801.252 24.1093 800.207 25.048C799.183 25.9867 798.596 27.288 798.447 28.952H809.519ZM819.282 24.312C819.794 23.3093 820.52 22.5307 821.458 21.976C822.418 21.4213 823.581 21.144 824.946 21.144V24.152H824.178C820.914 24.152 819.282 25.9227 819.282 29.464V39H816.37V21.464H819.282V24.312ZM829.236 39.192C828.681 39.192 828.212 39 827.828 38.616C827.444 38.232 827.252 37.7627 827.252 37.208C827.252 36.6533 827.444 36.184 827.828 35.8C828.212 35.416 828.681 35.224 829.236 35.224C829.769 35.224 830.217 35.416 830.58 35.8C830.964 36.184 831.156 36.6533 831.156 37.208C831.156 37.7627 830.964 38.232 830.58 38.616C830.217 39 829.769 39.192 829.236 39.192ZM846.47 16.696V39H843.558V16.696H846.47ZM226.97 87.2C226.97 85.3867 227.332 83.808 228.058 82.464C228.783 81.0987 229.786 80.0427 231.066 79.296C232.367 78.5493 233.85 78.176 235.514 78.176C237.668 78.176 239.439 78.6987 240.826 79.744C242.234 80.7893 243.162 82.24 243.61 84.096H240.474C240.175 83.0293 239.588 82.1867 238.714 81.568C237.86 80.9493 236.794 80.64 235.514 80.64C233.85 80.64 232.506 81.216 231.482 82.368C230.458 83.4987 229.946 85.1093 229.946 87.2C229.946 89.312 230.458 90.944 231.482 92.096C232.506 93.248 233.85 93.824 235.514 93.824C236.794 93.824 237.86 93.5253 238.714 92.928C239.567 92.3307 240.154 91.4773 240.474 90.368H243.61C243.14 92.16 242.202 93.6 240.794 94.688C239.386 95.7547 237.626 96.288 235.514 96.288C233.85 96.288 232.367 95.9147 231.066 95.168C229.786 94.4213 228.783 93.3653 228.058 92C227.332 90.6347 226.97 89.0347 226.97 87.2ZM250.407 81.312C250.919 80.3093 251.645 79.5307 252.583 78.976C253.543 78.4213 254.706 78.144 256.071 78.144V81.152H255.303C252.039 81.152 250.407 82.9227 250.407 86.464V96H247.495V78.464H250.407V81.312ZM275.433 86.56C275.433 87.1147 275.401 87.7013 275.337 88.32H261.321C261.427 90.048 262.014 91.4027 263.081 92.384C264.169 93.344 265.481 93.824 267.017 93.824C268.275 93.824 269.321 93.536 270.153 92.96C271.006 92.3627 271.603 91.5733 271.945 90.592H275.081C274.611 92.2773 273.673 93.6533 272.265 94.72C270.857 95.7653 269.107 96.288 267.017 96.288C265.353 96.288 263.859 95.9147 262.537 95.168C261.235 94.4213 260.211 93.3653 259.465 92C258.718 90.6133 258.345 89.0133 258.345 87.2C258.345 85.3867 258.707 83.7973 259.433 82.432C260.158 81.0667 261.171 80.0213 262.473 79.296C263.795 78.5493 265.31 78.176 267.017 78.176C268.681 78.176 270.153 78.5387 271.433 79.264C272.713 79.9893 273.694 80.992 274.377 82.272C275.081 83.5307 275.433 84.96 275.433 86.56ZM272.425 85.952C272.425 84.8427 272.179 83.8933 271.689 83.104C271.198 82.2933 270.526 81.6853 269.673 81.28C268.841 80.8533 267.913 80.64 266.889 80.64C265.417 80.64 264.158 81.1093 263.113 82.048C262.089 82.9867 261.502 84.288 261.353 85.952H272.425ZM278.189 87.168C278.189 85.376 278.551 83.808 279.277 82.464C280.002 81.0987 280.994 80.0427 282.253 79.296C283.533 78.5493 284.951 78.176 286.509 78.176C288.045 78.176 289.378 78.5067 290.509 79.168C291.639 79.8293 292.482 80.6613 293.037 81.664V78.464H295.981V96H293.037V92.736C292.461 93.76 291.597 94.6133 290.445 95.296C289.314 95.9573 287.991 96.288 286.477 96.288C284.919 96.288 283.511 95.904 282.253 95.136C280.994 94.368 280.002 93.2907 279.277 91.904C278.551 90.5173 278.189 88.9387 278.189 87.168ZM293.037 87.2C293.037 85.8773 292.77 84.7253 292.237 83.744C291.703 82.7627 290.978 82.016 290.061 81.504C289.165 80.9707 288.173 80.704 287.085 80.704C285.997 80.704 285.005 80.96 284.109 81.472C283.213 81.984 282.498 82.7307 281.965 83.712C281.431 84.6933 281.165 85.8453 281.165 87.168C281.165 88.512 281.431 89.6853 281.965 90.688C282.498 91.6693 283.213 92.4267 284.109 92.96C285.005 93.472 285.997 93.728 287.085 93.728C288.173 93.728 289.165 93.472 290.061 92.96C290.978 92.4267 291.703 91.6693 292.237 90.688C292.77 89.6853 293.037 88.5227 293.037 87.2ZM304.454 80.864V91.2C304.454 92.0533 304.635 92.6613 304.998 93.024C305.36 93.3653 305.99 93.536 306.885 93.536H309.03V96H306.406C304.784 96 303.568 95.6267 302.758 94.88C301.947 94.1333 301.542 92.9067 301.542 91.2V80.864H299.27V78.464H301.542V74.048H304.454V78.464H309.03V80.864H304.454ZM328.558 86.56C328.558 87.1147 328.526 87.7013 328.462 88.32H314.446C314.552 90.048 315.139 91.4027 316.206 92.384C317.294 93.344 318.606 93.824 320.142 93.824C321.4 93.824 322.446 93.536 323.278 92.96C324.131 92.3627 324.728 91.5733 325.07 90.592H328.206C327.736 92.2773 326.798 93.6533 325.39 94.72C323.982 95.7653 322.232 96.288 320.142 96.288C318.478 96.288 316.984 95.9147 315.662 95.168C314.36 94.4213 313.336 93.3653 312.59 92C311.843 90.6133 311.47 89.0133 311.47 87.2C311.47 85.3867 311.832 83.7973 312.558 82.432C313.283 81.0667 314.296 80.0213 315.598 79.296C316.92 78.5493 318.435 78.176 320.142 78.176C321.806 78.176 323.278 78.5387 324.558 79.264C325.838 79.9893 326.819 80.992 327.502 82.272C328.206 83.5307 328.558 84.96 328.558 86.56ZM325.55 85.952C325.55 84.8427 325.304 83.8933 324.814 83.104C324.323 82.2933 323.651 81.6853 322.798 81.28C321.966 80.8533 321.038 80.64 320.014 80.64C318.542 80.64 317.283 81.1093 316.238 82.048C315.214 82.9867 314.627 84.288 314.478 85.952H325.55ZM362.021 78.144C363.386 78.144 364.602 78.432 365.669 79.008C366.735 79.5627 367.578 80.4053 368.197 81.536C368.815 82.6667 369.125 84.0427 369.125 85.664V96H366.245V86.08C366.245 84.3307 365.807 82.9973 364.933 82.08C364.079 81.1413 362.917 80.672 361.445 80.672C359.93 80.672 358.725 81.1627 357.829 82.144C356.933 83.104 356.485 84.5013 356.485 86.336V96H353.605V86.08C353.605 84.3307 353.167 82.9973 352.293 82.08C351.439 81.1413 350.277 80.672 348.805 80.672C347.29 80.672 346.085 81.1627 345.189 82.144C344.293 83.104 343.845 84.5013 343.845 86.336V96H340.933V78.464H343.845V80.992C344.421 80.0747 345.189 79.3707 346.149 78.88C347.13 78.3893 348.207 78.144 349.381 78.144C350.853 78.144 352.154 78.4747 353.285 79.136C354.415 79.7973 355.258 80.768 355.813 82.048C356.303 80.8107 357.114 79.8507 358.245 79.168C359.375 78.4853 360.634 78.144 362.021 78.144ZM389.902 86.56C389.902 87.1147 389.87 87.7013 389.806 88.32H375.79C375.896 90.048 376.483 91.4027 377.55 92.384C378.638 93.344 379.95 93.824 381.486 93.824C382.744 93.824 383.79 93.536 384.622 92.96C385.475 92.3627 386.072 91.5733 386.414 90.592H389.55C389.08 92.2773 388.142 93.6533 386.734 94.72C385.326 95.7653 383.576 96.288 381.486 96.288C379.822 96.288 378.328 95.9147 377.006 95.168C375.704 94.4213 374.68 93.3653 373.934 92C373.187 90.6133 372.814 89.0133 372.814 87.2C372.814 85.3867 373.176 83.7973 373.902 82.432C374.627 81.0667 375.64 80.0213 376.942 79.296C378.264 78.5493 379.779 78.176 381.486 78.176C383.15 78.176 384.622 78.5387 385.902 79.264C387.182 79.9893 388.163 80.992 388.846 82.272C389.55 83.5307 389.902 84.96 389.902 86.56ZM386.894 85.952C386.894 84.8427 386.648 83.8933 386.158 83.104C385.667 82.2933 384.995 81.6853 384.142 81.28C383.31 80.8533 382.382 80.64 381.358 80.64C379.886 80.64 378.627 81.1093 377.582 82.048C376.558 82.9867 375.971 84.288 375.822 85.952H386.894ZM414.833 78.144C416.199 78.144 417.415 78.432 418.481 79.008C419.548 79.5627 420.391 80.4053 421.009 81.536C421.628 82.6667 421.937 84.0427 421.937 85.664V96H419.057V86.08C419.057 84.3307 418.62 82.9973 417.745 82.08C416.892 81.1413 415.729 80.672 414.257 80.672C412.743 80.672 411.537 81.1627 410.641 82.144C409.745 83.104 409.297 84.5013 409.297 86.336V96H406.417V86.08C406.417 84.3307 405.98 82.9973 405.105 82.08C404.252 81.1413 403.089 80.672 401.617 80.672C400.103 80.672 398.897 81.1627 398.001 82.144C397.105 83.104 396.657 84.5013 396.657 86.336V96H393.745V78.464H396.657V80.992C397.233 80.0747 398.001 79.3707 398.961 78.88C399.943 78.3893 401.02 78.144 402.193 78.144C403.665 78.144 404.967 78.4747 406.097 79.136C407.228 79.7973 408.071 80.768 408.625 82.048C409.116 80.8107 409.927 79.8507 411.057 79.168C412.188 78.4853 413.447 78.144 414.833 78.144ZM434.362 96.288C432.719 96.288 431.226 95.9147 429.882 95.168C428.559 94.4213 427.514 93.3653 426.746 92C425.999 90.6133 425.626 89.0133 425.626 87.2C425.626 85.408 426.01 83.8293 426.778 82.464C427.567 81.0773 428.634 80.0213 429.978 79.296C431.322 78.5493 432.826 78.176 434.49 78.176C436.154 78.176 437.658 78.5493 439.002 79.296C440.346 80.0213 441.402 81.0667 442.17 82.432C442.959 83.7973 443.354 85.3867 443.354 87.2C443.354 89.0133 442.949 90.6133 442.138 92C441.349 93.3653 440.271 94.4213 438.906 95.168C437.541 95.9147 436.026 96.288 434.362 96.288ZM434.362 93.728C435.407 93.728 436.389 93.4827 437.306 92.992C438.223 92.5013 438.959 91.7653 439.514 90.784C440.09 89.8027 440.378 88.608 440.378 87.2C440.378 85.792 440.101 84.5973 439.546 83.616C438.991 82.6347 438.266 81.9093 437.37 81.44C436.474 80.9493 435.503 80.704 434.458 80.704C433.391 80.704 432.41 80.9493 431.514 81.44C430.639 81.9093 429.935 82.6347 429.402 83.616C428.869 84.5973 428.602 85.792 428.602 87.2C428.602 88.6293 428.858 89.8347 429.37 90.816C429.903 91.7973 430.607 92.5333 431.482 93.024C432.357 93.4933 433.317 93.728 434.362 93.728ZM450.095 81.312C450.607 80.3093 451.332 79.5307 452.271 78.976C453.231 78.4213 454.393 78.144 455.759 78.144V81.152H454.991C451.727 81.152 450.095 82.9227 450.095 86.464V96H447.183V78.464H450.095V81.312ZM458.032 87.168C458.032 85.376 458.395 83.808 459.12 82.464C459.846 81.0987 460.838 80.0427 462.096 79.296C463.376 78.5493 464.795 78.176 466.352 78.176C467.888 78.176 469.222 78.5067 470.352 79.168C471.483 79.8293 472.326 80.6613 472.88 81.664V78.464H475.824V96H472.88V92.736C472.304 93.76 471.44 94.6133 470.288 95.296C469.158 95.9573 467.835 96.288 466.32 96.288C464.763 96.288 463.355 95.904 462.096 95.136C460.838 94.368 459.846 93.2907 459.12 91.904C458.395 90.5173 458.032 88.9387 458.032 87.168ZM472.88 87.2C472.88 85.8773 472.614 84.7253 472.08 83.744C471.547 82.7627 470.822 82.016 469.904 81.504C469.008 80.9707 468.016 80.704 466.928 80.704C465.84 80.704 464.848 80.96 463.952 81.472C463.056 81.984 462.342 82.7307 461.808 83.712C461.275 84.6933 461.008 85.8453 461.008 87.168C461.008 88.512 461.275 89.6853 461.808 90.688C462.342 91.6693 463.056 92.4267 463.952 92.96C464.848 93.472 465.84 93.728 466.928 93.728C468.016 93.728 469.008 93.472 469.904 92.96C470.822 92.4267 471.547 91.6693 472.08 90.688C472.614 89.6853 472.88 88.5227 472.88 87.2ZM483.657 81.728C484.255 80.6827 485.129 79.8293 486.281 79.168C487.433 78.5067 488.745 78.176 490.217 78.176C491.796 78.176 493.215 78.5493 494.473 79.296C495.732 80.0427 496.724 81.0987 497.449 82.464C498.175 83.808 498.537 85.376 498.537 87.168C498.537 88.9387 498.175 90.5173 497.449 91.904C496.724 93.2907 495.721 94.368 494.441 95.136C493.183 95.904 491.775 96.288 490.217 96.288C488.703 96.288 487.369 95.9573 486.217 95.296C485.087 94.6347 484.233 93.792 483.657 92.768V96H480.745V72.32H483.657V81.728ZM495.561 87.168C495.561 85.8453 495.295 84.6933 494.761 83.712C494.228 82.7307 493.503 81.984 492.585 81.472C491.689 80.96 490.697 80.704 489.609 80.704C488.543 80.704 487.551 80.9707 486.633 81.504C485.737 82.016 485.012 82.7733 484.457 83.776C483.924 84.7573 483.657 85.8987 483.657 87.2C483.657 88.5227 483.924 89.6853 484.457 90.688C485.012 91.6693 485.737 92.4267 486.633 92.96C487.551 93.472 488.543 93.728 489.609 93.728C490.697 93.728 491.689 93.472 492.585 92.96C493.503 92.4267 494.228 91.6693 494.761 90.688C495.295 89.6853 495.561 88.512 495.561 87.168ZM505.282 72.32V96H502.37V72.32H505.282ZM526.245 86.56C526.245 87.1147 526.213 87.7013 526.149 88.32H512.133C512.24 90.048 512.827 91.4027 513.893 92.384C514.981 93.344 516.293 93.824 517.829 93.824C519.088 93.824 520.133 93.536 520.965 92.96C521.819 92.3627 522.416 91.5733 522.757 90.592H525.893C525.424 92.2773 524.485 93.6533 523.077 94.72C521.669 95.7653 519.92 96.288 517.829 96.288C516.165 96.288 514.672 95.9147 513.349 95.168C512.048 94.4213 511.024 93.3653 510.277 92C509.531 90.6133 509.157 89.0133 509.157 87.2C509.157 85.3867 509.52 83.7973 510.245 82.432C510.971 81.0667 511.984 80.0213 513.285 79.296C514.608 78.5493 516.123 78.176 517.829 78.176C519.493 78.176 520.965 78.5387 522.245 79.264C523.525 79.9893 524.507 80.992 525.189 82.272C525.893 83.5307 526.245 84.96 526.245 86.56ZM523.237 85.952C523.237 84.8427 522.992 83.8933 522.501 83.104C522.011 82.2933 521.339 81.6853 520.485 81.28C519.653 80.8533 518.725 80.64 517.701 80.64C516.229 80.64 514.971 81.1093 513.925 82.048C512.901 82.9867 512.315 84.288 512.165 85.952H523.237ZM554.172 78.464V96H551.26V93.408C550.706 94.304 549.927 95.008 548.924 95.52C547.943 96.0107 546.855 96.256 545.66 96.256C544.295 96.256 543.068 95.9787 541.98 95.424C540.892 94.848 540.028 93.9947 539.388 92.864C538.77 91.7333 538.46 90.3573 538.46 88.736V78.464H541.34V88.352C541.34 90.08 541.778 91.4133 542.652 92.352C543.527 93.2693 544.722 93.728 546.236 93.728C547.794 93.728 549.02 93.248 549.916 92.288C550.812 91.328 551.26 89.9307 551.26 88.096V78.464H554.172ZM565.297 96.288C563.953 96.288 562.748 96.064 561.681 95.616C560.614 95.1467 559.772 94.5067 559.153 93.696C558.534 92.864 558.193 91.9147 558.129 90.848H561.137C561.222 91.7227 561.628 92.4373 562.353 92.992C563.1 93.5467 564.07 93.824 565.265 93.824C566.374 93.824 567.249 93.5787 567.889 93.088C568.529 92.5973 568.849 91.9787 568.849 91.232C568.849 90.464 568.508 89.8987 567.825 89.536C567.142 89.152 566.086 88.7787 564.657 88.416C563.356 88.0747 562.289 87.7333 561.457 87.392C560.646 87.0293 559.942 86.5067 559.345 85.824C558.769 85.12 558.481 84.2027 558.481 83.072C558.481 82.176 558.748 81.3547 559.281 80.608C559.814 79.8613 560.572 79.2747 561.553 78.848C562.534 78.4 563.654 78.176 564.913 78.176C566.854 78.176 568.422 78.6667 569.617 79.648C570.812 80.6293 571.452 81.9733 571.537 83.68H568.625C568.561 82.7627 568.188 82.0267 567.505 81.472C566.844 80.9173 565.948 80.64 564.817 80.64C563.772 80.64 562.94 80.864 562.321 81.312C561.702 81.76 561.393 82.3467 561.393 83.072C561.393 83.648 561.574 84.128 561.937 84.512C562.321 84.8747 562.79 85.1733 563.345 85.408C563.921 85.6213 564.71 85.8667 565.713 86.144C566.972 86.4853 567.996 86.8267 568.785 87.168C569.574 87.488 570.246 87.9787 570.801 88.64C571.377 89.3013 571.676 90.1653 571.697 91.232C571.697 92.192 571.43 93.056 570.897 93.824C570.364 94.592 569.606 95.2 568.625 95.648C567.665 96.0747 566.556 96.288 565.297 96.288ZM591.808 86.56C591.808 87.1147 591.776 87.7013 591.712 88.32H577.696C577.802 90.048 578.389 91.4027 579.456 92.384C580.544 93.344 581.856 93.824 583.392 93.824C584.65 93.824 585.696 93.536 586.528 92.96C587.381 92.3627 587.978 91.5733 588.32 90.592H591.456C590.986 92.2773 590.048 93.6533 588.64 94.72C587.232 95.7653 585.482 96.288 583.392 96.288C581.728 96.288 580.234 95.9147 578.912 95.168C577.61 94.4213 576.586 93.3653 575.84 92C575.093 90.6133 574.72 89.0133 574.72 87.2C574.72 85.3867 575.082 83.7973 575.808 82.432C576.533 81.0667 577.546 80.0213 578.848 79.296C580.17 78.5493 581.685 78.176 583.392 78.176C585.056 78.176 586.528 78.5387 587.808 79.264C589.088 79.9893 590.069 80.992 590.752 82.272C591.456 83.5307 591.808 84.96 591.808 86.56ZM588.8 85.952C588.8 84.8427 588.554 83.8933 588.064 83.104C587.573 82.2933 586.901 81.6853 586.048 81.28C585.216 80.8533 584.288 80.64 583.264 80.64C581.792 80.64 580.533 81.1093 579.488 82.048C578.464 82.9867 577.877 84.288 577.728 85.952H588.8ZM598.564 81.312C599.076 80.3093 599.801 79.5307 600.74 78.976C601.7 78.4213 602.862 78.144 604.228 78.144V81.152H603.46C600.196 81.152 598.564 82.9227 598.564 86.464V96H595.652V78.464H598.564V81.312ZM632.12 86.56C632.12 87.1147 632.088 87.7013 632.024 88.32H618.008C618.115 90.048 618.702 91.4027 619.768 92.384C620.856 93.344 622.168 93.824 623.704 93.824C624.963 93.824 626.008 93.536 626.84 92.96C627.694 92.3627 628.291 91.5733 628.632 90.592H631.768C631.299 92.2773 630.36 93.6533 628.952 94.72C627.544 95.7653 625.795 96.288 623.704 96.288C622.04 96.288 620.547 95.9147 619.224 95.168C617.923 94.4213 616.899 93.3653 616.152 92C615.406 90.6133 615.032 89.0133 615.032 87.2C615.032 85.3867 615.395 83.7973 616.12 82.432C616.846 81.0667 617.859 80.0213 619.16 79.296C620.483 78.5493 621.998 78.176 623.704 78.176C625.368 78.176 626.84 78.5387 628.12 79.264C629.4 79.9893 630.382 80.992 631.064 82.272C631.768 83.5307 632.12 84.96 632.12 86.56ZM629.112 85.952C629.112 84.8427 628.867 83.8933 628.376 83.104C627.886 82.2933 627.214 81.6853 626.36 81.28C625.528 80.8533 624.6 80.64 623.576 80.64C622.104 80.64 620.846 81.1093 619.8 82.048C618.776 82.9867 618.19 84.288 618.04 85.952H629.112ZM645.116 96L640.956 89.472L636.956 96H633.916L639.58 87.296L633.916 78.464H637.212L641.372 84.96L645.34 78.464H648.38L642.748 87.136L648.412 96H645.116ZM654.189 81.696C654.765 80.6933 655.618 79.8613 656.749 79.2C657.901 78.5173 659.234 78.176 660.749 78.176C662.306 78.176 663.714 78.5493 664.972 79.296C666.252 80.0427 667.255 81.0987 667.981 82.464C668.706 83.808 669.069 85.376 669.069 87.168C669.069 88.9387 668.706 90.5173 667.981 91.904C667.255 93.2907 666.252 94.368 664.972 95.136C663.714 95.904 662.306 96.288 660.749 96.288C659.255 96.288 657.933 95.9573 656.781 95.296C655.65 94.6133 654.786 93.7707 654.189 92.768V104.32H651.277V78.464H654.189V81.696ZM666.093 87.168C666.093 85.8453 665.826 84.6933 665.293 83.712C664.759 82.7307 664.034 81.984 663.117 81.472C662.221 80.96 661.229 80.704 660.141 80.704C659.074 80.704 658.082 80.9707 657.165 81.504C656.269 82.016 655.543 82.7733 654.989 83.776C654.455 84.7573 654.189 85.8987 654.189 87.2C654.189 88.5227 654.455 89.6853 654.989 90.688C655.543 91.6693 656.269 92.4267 657.165 92.96C658.082 93.472 659.074 93.728 660.141 93.728C661.229 93.728 662.221 93.472 663.117 92.96C664.034 92.4267 664.759 91.6693 665.293 90.688C665.826 89.6853 666.093 88.512 666.093 87.168ZM688.902 86.56C688.902 87.1147 688.87 87.7013 688.806 88.32H674.79C674.896 90.048 675.483 91.4027 676.55 92.384C677.638 93.344 678.95 93.824 680.486 93.824C681.744 93.824 682.79 93.536 683.622 92.96C684.475 92.3627 685.072 91.5733 685.414 90.592H688.55C688.08 92.2773 687.142 93.6533 685.734 94.72C684.326 95.7653 682.576 96.288 680.486 96.288C678.822 96.288 677.328 95.9147 676.006 95.168C674.704 94.4213 673.68 93.3653 672.934 92C672.187 90.6133 671.814 89.0133 671.814 87.2C671.814 85.3867 672.176 83.7973 672.902 82.432C673.627 81.0667 674.64 80.0213 675.942 79.296C677.264 78.5493 678.779 78.176 680.486 78.176C682.15 78.176 683.622 78.5387 684.902 79.264C686.182 79.9893 687.163 80.992 687.846 82.272C688.55 83.5307 688.902 84.96 688.902 86.56ZM685.894 85.952C685.894 84.8427 685.648 83.8933 685.158 83.104C684.667 82.2933 683.995 81.6853 683.142 81.28C682.31 80.8533 681.382 80.64 680.358 80.64C678.886 80.64 677.627 81.1093 676.582 82.048C675.558 82.9867 674.971 84.288 674.822 85.952H685.894ZM695.657 81.312C696.169 80.3093 696.895 79.5307 697.833 78.976C698.793 78.4213 699.956 78.144 701.321 78.144V81.152H700.553C697.289 81.152 695.657 82.9227 695.657 86.464V96H692.745V78.464H695.657V81.312ZM706.187 75.616C705.632 75.616 705.163 75.424 704.779 75.04C704.395 74.656 704.203 74.1867 704.203 73.632C704.203 73.0773 704.395 72.608 704.779 72.224C705.163 71.84 705.632 71.648 706.187 71.648C706.72 71.648 707.168 71.84 707.531 72.224C707.915 72.608 708.107 73.0773 708.107 73.632C708.107 74.1867 707.915 74.656 707.531 75.04C707.168 75.424 706.72 75.616 706.187 75.616ZM707.595 78.464V96H704.683V78.464H707.595ZM728.558 86.56C728.558 87.1147 728.526 87.7013 728.462 88.32H714.446C714.552 90.048 715.139 91.4027 716.206 92.384C717.294 93.344 718.606 93.824 720.142 93.824C721.4 93.824 722.446 93.536 723.278 92.96C724.131 92.3627 724.728 91.5733 725.07 90.592H728.206C727.736 92.2773 726.798 93.6533 725.39 94.72C723.982 95.7653 722.232 96.288 720.142 96.288C718.478 96.288 716.984 95.9147 715.662 95.168C714.36 94.4213 713.336 93.3653 712.59 92C711.843 90.6133 711.47 89.0133 711.47 87.2C711.47 85.3867 711.832 83.7973 712.558 82.432C713.283 81.0667 714.296 80.0213 715.598 79.296C716.92 78.5493 718.435 78.176 720.142 78.176C721.806 78.176 723.278 78.5387 724.558 79.264C725.838 79.9893 726.819 80.992 727.502 82.272C728.206 83.5307 728.558 84.96 728.558 86.56ZM725.55 85.952C725.55 84.8427 725.304 83.8933 724.814 83.104C724.323 82.2933 723.651 81.6853 722.798 81.28C721.966 80.8533 721.038 80.64 720.014 80.64C718.542 80.64 717.283 81.1093 716.238 82.048C715.214 82.9867 714.627 84.288 714.478 85.952H725.55ZM740.946 78.144C743.079 78.144 744.807 78.7947 746.13 80.096C747.452 81.376 748.114 83.232 748.114 85.664V96H745.234V86.08C745.234 84.3307 744.796 82.9973 743.922 82.08C743.047 81.1413 741.852 80.672 740.338 80.672C738.802 80.672 737.575 81.152 736.658 82.112C735.762 83.072 735.314 84.4693 735.314 86.304V96H732.402V78.464H735.314V80.96C735.89 80.064 736.668 79.3707 737.65 78.88C738.652 78.3893 739.751 78.144 740.946 78.144ZM751.782 87.2C751.782 85.3867 752.145 83.808 752.87 82.464C753.596 81.0987 754.598 80.0427 755.878 79.296C757.18 78.5493 758.662 78.176 760.326 78.176C762.481 78.176 764.252 78.6987 765.638 79.744C767.046 80.7893 767.974 82.24 768.422 84.096H765.286C764.988 83.0293 764.401 82.1867 763.526 81.568C762.673 80.9493 761.606 80.64 760.326 80.64C758.662 80.64 757.318 81.216 756.294 82.368C755.27 83.4987 754.758 85.1093 754.758 87.2C754.758 89.312 755.27 90.944 756.294 92.096C757.318 93.248 758.662 93.824 760.326 93.824C761.606 93.824 762.673 93.5253 763.526 92.928C764.38 92.3307 764.966 91.4773 765.286 90.368H768.422C767.953 92.16 767.014 93.6 765.606 94.688C764.198 95.7547 762.438 96.288 760.326 96.288C758.662 96.288 757.18 95.9147 755.878 95.168C754.598 94.4213 753.596 93.3653 752.87 92C752.145 90.6347 751.782 89.0347 751.782 87.2ZM788.308 86.56C788.308 87.1147 788.276 87.7013 788.212 88.32H774.196C774.302 90.048 774.889 91.4027 775.956 92.384C777.044 93.344 778.356 93.824 779.892 93.824C781.15 93.824 782.196 93.536 783.028 92.96C783.881 92.3627 784.478 91.5733 784.82 90.592H787.956C787.486 92.2773 786.548 93.6533 785.14 94.72C783.732 95.7653 781.982 96.288 779.892 96.288C778.228 96.288 776.734 95.9147 775.412 95.168C774.11 94.4213 773.086 93.3653 772.34 92C771.593 90.6133 771.22 89.0133 771.22 87.2C771.22 85.3867 771.582 83.7973 772.308 82.432C773.033 81.0667 774.046 80.0213 775.348 79.296C776.67 78.5493 778.185 78.176 779.892 78.176C781.556 78.176 783.028 78.5387 784.308 79.264C785.588 79.9893 786.569 80.992 787.252 82.272C787.956 83.5307 788.308 84.96 788.308 86.56ZM785.3 85.952C785.3 84.8427 785.054 83.8933 784.564 83.104C784.073 82.2933 783.401 81.6853 782.548 81.28C781.716 80.8533 780.788 80.64 779.764 80.64C778.292 80.64 777.033 81.1093 775.988 82.048C774.964 82.9867 774.377 84.288 774.228 85.952H785.3ZM798.36 96.288C797.016 96.288 795.81 96.064 794.744 95.616C793.677 95.1467 792.834 94.5067 792.216 93.696C791.597 92.864 791.256 91.9147 791.192 90.848H794.2C794.285 91.7227 794.69 92.4373 795.416 92.992C796.162 93.5467 797.133 93.824 798.328 93.824C799.437 93.824 800.312 93.5787 800.952 93.088C801.592 92.5973 801.912 91.9787 801.912 91.232C801.912 90.464 801.57 89.8987 800.888 89.536C800.205 89.152 799.149 88.7787 797.72 88.416C796.418 88.0747 795.352 87.7333 794.52 87.392C793.709 87.0293 793.005 86.5067 792.408 85.824C791.832 85.12 791.544 84.2027 791.544 83.072C791.544 82.176 791.81 81.3547 792.344 80.608C792.877 79.8613 793.634 79.2747 794.616 78.848C795.597 78.4 796.717 78.176 797.976 78.176C799.917 78.176 801.485 78.6667 802.68 79.648C803.874 80.6293 804.514 81.9733 804.6 83.68H801.688C801.624 82.7627 801.25 82.0267 800.568 81.472C799.906 80.9173 799.01 80.64 797.88 80.64C796.834 80.64 796.002 80.864 795.384 81.312C794.765 81.76 794.456 82.3467 794.456 83.072C794.456 83.648 794.637 84.128 795 84.512C795.384 84.8747 795.853 85.1733 796.408 85.408C796.984 85.6213 797.773 85.8667 798.776 86.144C800.034 86.4853 801.058 86.8267 801.848 87.168C802.637 87.488 803.309 87.9787 803.864 88.64C804.44 89.3013 804.738 90.1653 804.76 91.232C804.76 92.192 804.493 93.056 803.96 93.824C803.426 94.592 802.669 95.2 801.688 95.648C800.728 96.0747 799.618 96.288 798.36 96.288Z" fill="white"/>
<path d="M419.756 129.848L416.524 141H414.892L412.3 132.024L409.612 141L407.996 141.016L404.876 129.848H406.428L408.86 139.304L411.548 129.848H413.18L415.74 139.272L418.188 129.848H419.756ZM429.349 136.28C429.349 136.557 429.333 136.851 429.301 137.16H422.293C422.346 138.024 422.64 138.701 423.173 139.192C423.717 139.672 424.373 139.912 425.141 139.912C425.77 139.912 426.293 139.768 426.709 139.48C427.136 139.181 427.434 138.787 427.605 138.296H429.173C428.938 139.139 428.469 139.827 427.765 140.36C427.061 140.883 426.186 141.144 425.141 141.144C424.309 141.144 423.562 140.957 422.901 140.584C422.25 140.211 421.738 139.683 421.365 139C420.992 138.307 420.805 137.507 420.805 136.6C420.805 135.693 420.986 134.899 421.349 134.216C421.712 133.533 422.218 133.011 422.869 132.648C423.53 132.275 424.288 132.088 425.141 132.088C425.973 132.088 426.709 132.269 427.349 132.632C427.989 132.995 428.48 133.496 428.821 134.136C429.173 134.765 429.349 135.48 429.349 136.28ZM427.845 135.976C427.845 135.421 427.722 134.947 427.477 134.552C427.232 134.147 426.896 133.843 426.469 133.64C426.053 133.427 425.589 133.32 425.077 133.32C424.341 133.32 423.712 133.555 423.189 134.024C422.677 134.493 422.384 135.144 422.309 135.976H427.845ZM432.727 129.16V141H431.271V129.16H432.727ZM434.664 136.6C434.664 135.693 434.846 134.904 435.208 134.232C435.571 133.549 436.072 133.021 436.712 132.648C437.363 132.275 438.104 132.088 438.936 132.088C440.014 132.088 440.899 132.349 441.592 132.872C442.296 133.395 442.76 134.12 442.984 135.048H441.416C441.267 134.515 440.974 134.093 440.536 133.784C440.11 133.475 439.576 133.32 438.936 133.32C438.104 133.32 437.432 133.608 436.92 134.184C436.408 134.749 436.152 135.555 436.152 136.6C436.152 137.656 436.408 138.472 436.92 139.048C437.432 139.624 438.104 139.912 438.936 139.912C439.576 139.912 440.11 139.763 440.536 139.464C440.963 139.165 441.256 138.739 441.416 138.184H442.984C442.75 139.08 442.28 139.8 441.576 140.344C440.872 140.877 439.992 141.144 438.936 141.144C438.104 141.144 437.363 140.957 436.712 140.584C436.072 140.211 435.571 139.683 435.208 139C434.846 138.317 434.664 137.517 434.664 136.6ZM448.751 141.144C447.93 141.144 447.183 140.957 446.511 140.584C445.85 140.211 445.327 139.683 444.943 139C444.57 138.307 444.383 137.507 444.383 136.6C444.383 135.704 444.575 134.915 444.959 134.232C445.354 133.539 445.887 133.011 446.559 132.648C447.231 132.275 447.983 132.088 448.815 132.088C449.647 132.088 450.399 132.275 451.071 132.648C451.743 133.011 452.271 133.533 452.655 134.216C453.05 134.899 453.247 135.693 453.247 136.6C453.247 137.507 453.044 138.307 452.639 139C452.244 139.683 451.706 140.211 451.023 140.584C450.34 140.957 449.583 141.144 448.751 141.144ZM448.751 139.864C449.274 139.864 449.764 139.741 450.223 139.496C450.682 139.251 451.05 138.883 451.327 138.392C451.615 137.901 451.759 137.304 451.759 136.6C451.759 135.896 451.62 135.299 451.343 134.808C451.066 134.317 450.703 133.955 450.255 133.72C449.807 133.475 449.322 133.352 448.799 133.352C448.266 133.352 447.775 133.475 447.327 133.72C446.89 133.955 446.538 134.317 446.271 134.808C446.004 135.299 445.871 135.896 445.871 136.6C445.871 137.315 445.999 137.917 446.255 138.408C446.522 138.899 446.874 139.267 447.311 139.512C447.748 139.747 448.228 139.864 448.751 139.864ZM465.706 132.072C466.388 132.072 466.996 132.216 467.53 132.504C468.063 132.781 468.484 133.203 468.794 133.768C469.103 134.333 469.258 135.021 469.258 135.832V141H467.818V136.04C467.818 135.165 467.599 134.499 467.162 134.04C466.735 133.571 466.154 133.336 465.418 133.336C464.66 133.336 464.058 133.581 463.61 134.072C463.162 134.552 462.938 135.251 462.938 136.168V141H461.498V136.04C461.498 135.165 461.279 134.499 460.842 134.04C460.415 133.571 459.834 133.336 459.098 133.336C458.34 133.336 457.738 133.581 457.29 134.072C456.842 134.552 456.618 135.251 456.618 136.168V141H455.162V132.232H456.618V133.496C456.906 133.037 457.29 132.685 457.77 132.44C458.26 132.195 458.799 132.072 459.386 132.072C460.122 132.072 460.772 132.237 461.338 132.568C461.903 132.899 462.324 133.384 462.602 134.024C462.847 133.405 463.252 132.925 463.818 132.584C464.383 132.243 465.012 132.072 465.706 132.072ZM479.646 136.28C479.646 136.557 479.63 136.851 479.598 137.16H472.59C472.643 138.024 472.937 138.701 473.47 139.192C474.014 139.672 474.67 139.912 475.438 139.912C476.067 139.912 476.59 139.768 477.006 139.48C477.433 139.181 477.731 138.787 477.902 138.296H479.47C479.235 139.139 478.766 139.827 478.062 140.36C477.358 140.883 476.483 141.144 475.438 141.144C474.606 141.144 473.859 140.957 473.198 140.584C472.547 140.211 472.035 139.683 471.662 139C471.289 138.307 471.102 137.507 471.102 136.6C471.102 135.693 471.283 134.899 471.646 134.216C472.009 133.533 472.515 133.011 473.166 132.648C473.827 132.275 474.585 132.088 475.438 132.088C476.27 132.088 477.006 132.269 477.646 132.632C478.286 132.995 478.777 133.496 479.118 134.136C479.47 134.765 479.646 135.48 479.646 136.28ZM478.142 135.976C478.142 135.421 478.019 134.947 477.774 134.552C477.529 134.147 477.193 133.843 476.766 133.64C476.35 133.427 475.886 133.32 475.374 133.32C474.638 133.32 474.009 133.555 473.486 134.024C472.974 134.493 472.681 135.144 472.606 135.976H478.142ZM487.609 133.432V138.6C487.609 139.027 487.7 139.331 487.881 139.512C488.063 139.683 488.377 139.768 488.825 139.768H489.897V141H488.585C487.775 141 487.167 140.813 486.761 140.44C486.356 140.067 486.153 139.453 486.153 138.6V133.432H485.017V132.232H486.153V130.024H487.609V132.232H489.897V133.432H487.609ZM495.486 141.144C494.664 141.144 493.918 140.957 493.246 140.584C492.584 140.211 492.062 139.683 491.678 139C491.304 138.307 491.118 137.507 491.118 136.6C491.118 135.704 491.31 134.915 491.694 134.232C492.088 133.539 492.622 133.011 493.294 132.648C493.966 132.275 494.718 132.088 495.55 132.088C496.382 132.088 497.134 132.275 497.806 132.648C498.478 133.011 499.006 133.533 499.39 134.216C499.784 134.899 499.982 135.693 499.982 136.6C499.982 137.507 499.779 138.307 499.374 139C498.979 139.683 498.44 140.211 497.758 140.584C497.075 140.957 496.318 141.144 495.486 141.144ZM495.486 139.864C496.008 139.864 496.499 139.741 496.958 139.496C497.416 139.251 497.784 138.883 498.062 138.392C498.35 137.901 498.494 137.304 498.494 136.6C498.494 135.896 498.355 135.299 498.078 134.808C497.8 134.317 497.438 133.955 496.99 133.72C496.542 133.475 496.056 133.352 495.534 133.352C495 133.352 494.51 133.475 494.062 133.72C493.624 133.955 493.272 134.317 493.006 134.808C492.739 135.299 492.606 135.896 492.606 136.6C492.606 137.315 492.734 137.917 492.99 138.408C493.256 138.899 493.608 139.267 494.046 139.512C494.483 139.747 494.963 139.864 495.486 139.864ZM516.706 132.072C517.388 132.072 517.996 132.216 518.53 132.504C519.063 132.781 519.484 133.203 519.794 133.768C520.103 134.333 520.258 135.021 520.258 135.832V141H518.818V136.04C518.818 135.165 518.599 134.499 518.162 134.04C517.735 133.571 517.154 133.336 516.418 133.336C515.66 133.336 515.058 133.581 514.61 134.072C514.162 134.552 513.938 135.251 513.938 136.168V141H512.498V136.04C512.498 135.165 512.279 134.499 511.842 134.04C511.415 133.571 510.834 133.336 510.098 133.336C509.34 133.336 508.738 133.581 508.29 134.072C507.842 134.552 507.618 135.251 507.618 136.168V141H506.162V132.232H507.618V133.496C507.906 133.037 508.29 132.685 508.77 132.44C509.26 132.195 509.799 132.072 510.386 132.072C511.122 132.072 511.772 132.237 512.338 132.568C512.903 132.899 513.324 133.384 513.602 134.024C513.847 133.405 514.252 132.925 514.818 132.584C515.383 132.243 516.012 132.072 516.706 132.072ZM530.198 132.232L524.918 145.128H523.414L525.142 140.904L521.606 132.232H523.222L525.974 139.336L528.694 132.232H530.198ZM547.607 132.232L544.871 141H543.367L541.255 134.04L539.143 141H537.639L534.887 132.232H536.375L538.391 139.592L540.567 132.232H542.055L544.183 139.608L546.167 132.232H547.607ZM552.876 141.144C552.055 141.144 551.308 140.957 550.636 140.584C549.975 140.211 549.452 139.683 549.068 139C548.695 138.307 548.508 137.507 548.508 136.6C548.508 135.704 548.7 134.915 549.084 134.232C549.479 133.539 550.012 133.011 550.684 132.648C551.356 132.275 552.108 132.088 552.94 132.088C553.772 132.088 554.524 132.275 555.196 132.648C555.868 133.011 556.396 133.533 556.78 134.216C557.175 134.899 557.372 135.693 557.372 136.6C557.372 137.507 557.169 138.307 556.764 139C556.369 139.683 555.831 140.211 555.148 140.584C554.465 140.957 553.708 141.144 552.876 141.144ZM552.876 139.864C553.399 139.864 553.889 139.741 554.348 139.496C554.807 139.251 555.175 138.883 555.452 138.392C555.74 137.901 555.884 137.304 555.884 136.6C555.884 135.896 555.745 135.299 555.468 134.808C555.191 134.317 554.828 133.955 554.38 133.72C553.932 133.475 553.447 133.352 552.924 133.352C552.391 133.352 551.9 133.475 551.452 133.72C551.015 133.955 550.663 134.317 550.396 134.808C550.129 135.299 549.996 135.896 549.996 136.6C549.996 137.315 550.124 137.917 550.38 138.408C550.647 138.899 550.999 139.267 551.436 139.512C551.873 139.747 552.353 139.864 552.876 139.864ZM560.743 133.656C560.999 133.155 561.361 132.765 561.831 132.488C562.311 132.211 562.892 132.072 563.575 132.072V133.576H563.191C561.559 133.576 560.743 134.461 560.743 136.232V141H559.287V132.232H560.743V133.656ZM570.151 141L566.711 137.128V141H565.255V129.16H566.711V136.12L570.087 132.232H572.119L567.991 136.6L572.135 141H570.151ZM576.594 141.144C575.922 141.144 575.319 141.032 574.786 140.808C574.252 140.573 573.831 140.253 573.522 139.848C573.212 139.432 573.042 138.957 573.01 138.424H574.514C574.556 138.861 574.759 139.219 575.122 139.496C575.495 139.773 575.98 139.912 576.578 139.912C577.132 139.912 577.57 139.789 577.89 139.544C578.21 139.299 578.37 138.989 578.37 138.616C578.37 138.232 578.199 137.949 577.858 137.768C577.516 137.576 576.988 137.389 576.274 137.208C575.623 137.037 575.09 136.867 574.674 136.696C574.268 136.515 573.916 136.253 573.618 135.912C573.33 135.56 573.186 135.101 573.186 134.536C573.186 134.088 573.319 133.677 573.586 133.304C573.852 132.931 574.231 132.637 574.722 132.424C575.212 132.2 575.772 132.088 576.402 132.088C577.372 132.088 578.156 132.333 578.754 132.824C579.351 133.315 579.671 133.987 579.714 134.84H578.258C578.226 134.381 578.039 134.013 577.698 133.736C577.367 133.459 576.919 133.32 576.354 133.32C575.831 133.32 575.415 133.432 575.106 133.656C574.796 133.88 574.642 134.173 574.642 134.536C574.642 134.824 574.732 135.064 574.914 135.256C575.106 135.437 575.34 135.587 575.618 135.704C575.906 135.811 576.3 135.933 576.802 136.072C577.431 136.243 577.943 136.413 578.338 136.584C578.732 136.744 579.068 136.989 579.346 137.32C579.634 137.651 579.783 138.083 579.794 138.616C579.794 139.096 579.66 139.528 579.394 139.912C579.127 140.296 578.748 140.6 578.258 140.824C577.778 141.037 577.223 141.144 576.594 141.144ZM583.625 133.432V138.6C583.625 139.027 583.716 139.331 583.897 139.512C584.078 139.683 584.393 139.768 584.841 139.768H585.913V141H584.601C583.79 141 583.182 140.813 582.777 140.44C582.372 140.067 582.169 139.453 582.169 138.6V133.432H581.033V132.232H582.169V130.024H583.625V132.232H585.913V133.432H583.625ZM587.133 136.584C587.133 135.688 587.314 134.904 587.677 134.232C588.04 133.549 588.536 133.021 589.165 132.648C589.805 132.275 590.514 132.088 591.293 132.088C592.061 132.088 592.728 132.253 593.293 132.584C593.858 132.915 594.28 133.331 594.557 133.832V132.232H596.029V141H594.557V139.368C594.269 139.88 593.837 140.307 593.261 140.648C592.696 140.979 592.034 141.144 591.277 141.144C590.498 141.144 589.794 140.952 589.165 140.568C588.536 140.184 588.04 139.645 587.677 138.952C587.314 138.259 587.133 137.469 587.133 136.584ZM594.557 136.6C594.557 135.939 594.424 135.363 594.157 134.872C593.89 134.381 593.528 134.008 593.069 133.752C592.621 133.485 592.125 133.352 591.581 133.352C591.037 133.352 590.541 133.48 590.093 133.736C589.645 133.992 589.288 134.365 589.021 134.856C588.754 135.347 588.621 135.923 588.621 136.584C588.621 137.256 588.754 137.843 589.021 138.344C589.288 138.835 589.645 139.213 590.093 139.48C590.541 139.736 591.037 139.864 591.581 139.864C592.125 139.864 592.621 139.736 593.069 139.48C593.528 139.213 593.89 138.835 594.157 138.344C594.424 137.843 594.557 137.261 594.557 136.6ZM600.266 133.432V138.6C600.266 139.027 600.356 139.331 600.538 139.512C600.719 139.683 601.034 139.768 601.482 139.768H602.554V141H601.242C600.431 141 599.823 140.813 599.418 140.44C599.012 140.067 598.81 139.453 598.81 138.6V133.432H597.674V132.232H598.81V130.024H600.266V132.232H602.554V133.432H600.266ZM605.07 130.808C604.792 130.808 604.558 130.712 604.366 130.52C604.174 130.328 604.078 130.093 604.078 129.816C604.078 129.539 604.174 129.304 604.366 129.112C604.558 128.92 604.792 128.824 605.07 128.824C605.336 128.824 605.56 128.92 605.742 129.112C605.934 129.304 606.03 129.539 606.03 129.816C606.03 130.093 605.934 130.328 605.742 130.52C605.56 130.712 605.336 130.808 605.07 130.808ZM605.774 132.232V141H604.318V132.232H605.774ZM612.079 141.144C611.258 141.144 610.511 140.957 609.839 140.584C609.178 140.211 608.655 139.683 608.271 139C607.898 138.307 607.711 137.507 607.711 136.6C607.711 135.704 607.903 134.915 608.287 134.232C608.682 133.539 609.215 133.011 609.887 132.648C610.559 132.275 611.311 132.088 612.143 132.088C612.975 132.088 613.727 132.275 614.399 132.648C615.071 133.011 615.599 133.533 615.983 134.216C616.378 134.899 616.575 135.693 616.575 136.6C616.575 137.507 616.373 138.307 615.967 139C615.573 139.683 615.034 140.211 614.351 140.584C613.669 140.957 612.911 141.144 612.079 141.144ZM612.079 139.864C612.602 139.864 613.093 139.741 613.551 139.496C614.01 139.251 614.378 138.883 614.655 138.392C614.943 137.901 615.087 137.304 615.087 136.6C615.087 135.896 614.949 135.299 614.671 134.808C614.394 134.317 614.031 133.955 613.583 133.72C613.135 133.475 612.65 133.352 612.127 133.352C611.594 133.352 611.103 133.475 610.655 133.72C610.218 133.955 609.866 134.317 609.599 134.808C609.333 135.299 609.199 135.896 609.199 136.6C609.199 137.315 609.327 137.917 609.583 138.408C609.85 138.899 610.202 139.267 610.639 139.512C611.077 139.747 611.557 139.864 612.079 139.864ZM622.762 132.072C623.828 132.072 624.692 132.397 625.354 133.048C626.015 133.688 626.346 134.616 626.346 135.832V141H624.906V136.04C624.906 135.165 624.687 134.499 624.25 134.04C623.812 133.571 623.215 133.336 622.458 133.336C621.69 133.336 621.076 133.576 620.618 134.056C620.17 134.536 619.946 135.235 619.946 136.152V141H618.49V132.232H619.946V133.48C620.234 133.032 620.623 132.685 621.114 132.44C621.615 132.195 622.164 132.072 622.762 132.072Z" fill="white"/>
<rect x="457.276" y="158.75" width="117.448" height="41.0331" rx="20.5165" fill="url(#paint0_linear_259_185)"/>
<rect x="457.276" y="158.75" width="117.448" height="41.0331" rx="20.5165" stroke="url(#paint1_linear_259_185)" stroke-width="1.5"/>
<path d="M478.072 173.647V175.135H475.112V184.767H473.288V175.135H470.312V173.647H478.072ZM479.311 180.319C479.311 179.433 479.492 178.649 479.855 177.967C480.228 177.284 480.729 176.756 481.359 176.383C481.999 175.999 482.703 175.807 483.471 175.807C484.164 175.807 484.767 175.945 485.279 176.223C485.801 176.489 486.217 176.825 486.527 177.231V175.951H488.367V184.767H486.527V183.455C486.217 183.871 485.796 184.217 485.263 184.495C484.729 184.772 484.121 184.911 483.439 184.911C482.681 184.911 481.988 184.719 481.359 184.335C480.729 183.94 480.228 183.396 479.855 182.703C479.492 181.999 479.311 181.204 479.311 180.319ZM486.527 180.351C486.527 179.743 486.399 179.215 486.143 178.767C485.897 178.319 485.572 177.977 485.167 177.743C484.761 177.508 484.324 177.391 483.855 177.391C483.385 177.391 482.948 177.508 482.543 177.743C482.137 177.967 481.807 178.303 481.551 178.751C481.305 179.188 481.183 179.711 481.183 180.319C481.183 180.927 481.305 181.46 481.551 181.919C481.807 182.377 482.137 182.729 482.543 182.975C482.959 183.209 483.396 183.327 483.855 183.327C484.324 183.327 484.761 183.209 485.167 182.975C485.572 182.74 485.897 182.399 486.143 181.951C486.399 181.492 486.527 180.959 486.527 180.351ZM492.587 177.247C492.896 176.841 493.317 176.5 493.851 176.223C494.384 175.945 494.987 175.807 495.659 175.807C496.427 175.807 497.125 175.999 497.755 176.383C498.395 176.756 498.896 177.284 499.259 177.967C499.621 178.649 499.803 179.433 499.803 180.319C499.803 181.204 499.621 181.999 499.259 182.703C498.896 183.396 498.395 183.94 497.755 184.335C497.125 184.719 496.427 184.911 495.659 184.911C494.987 184.911 494.389 184.777 493.867 184.511C493.344 184.233 492.917 183.892 492.587 183.487V188.959H490.763V175.951H492.587V177.247ZM497.947 180.319C497.947 179.711 497.819 179.188 497.562 178.751C497.317 178.303 496.987 177.967 496.571 177.743C496.165 177.508 495.728 177.391 495.259 177.391C494.8 177.391 494.363 177.508 493.947 177.743C493.541 177.977 493.211 178.319 492.955 178.767C492.709 179.215 492.587 179.743 492.587 180.351C492.587 180.959 492.709 181.492 492.955 181.951C493.211 182.399 493.541 182.74 493.947 182.975C494.363 183.209 494.8 183.327 495.259 183.327C495.728 183.327 496.165 183.209 496.571 182.975C496.987 182.729 497.317 182.377 497.562 181.919C497.819 181.46 497.947 180.927 497.947 180.319ZM507.891 177.439V182.319C507.891 182.649 507.965 182.889 508.115 183.039C508.275 183.177 508.541 183.247 508.915 183.247H510.035V184.767H508.595C507.773 184.767 507.144 184.575 506.707 184.191C506.269 183.807 506.051 183.183 506.051 182.319V177.439H505.011V175.951H506.051V173.759H507.891V175.951H510.035V177.439H507.891ZM515.54 184.911C514.708 184.911 513.956 184.724 513.284 184.351C512.612 183.967 512.084 183.433 511.7 182.751C511.316 182.057 511.124 181.257 511.124 180.351C511.124 179.455 511.321 178.66 511.716 177.967C512.11 177.273 512.649 176.74 513.332 176.367C514.014 175.993 514.777 175.807 515.62 175.807C516.462 175.807 517.225 175.993 517.908 176.367C518.59 176.74 519.129 177.273 519.524 177.967C519.918 178.66 520.116 179.455 520.116 180.351C520.116 181.247 519.913 182.041 519.508 182.735C519.102 183.428 518.548 183.967 517.844 184.351C517.15 184.724 516.382 184.911 515.54 184.911ZM515.54 183.327C516.009 183.327 516.446 183.215 516.852 182.991C517.268 182.767 517.604 182.431 517.86 181.983C518.116 181.535 518.244 180.991 518.244 180.351C518.244 179.711 518.121 179.172 517.876 178.735C517.63 178.287 517.305 177.951 516.9 177.727C516.494 177.503 516.057 177.391 515.588 177.391C515.118 177.391 514.681 177.503 514.276 177.727C513.881 177.951 513.566 178.287 513.332 178.735C513.097 179.172 512.98 179.711 512.98 180.351C512.98 181.3 513.22 182.036 513.7 182.559C514.19 183.071 514.804 183.327 515.54 183.327ZM529.275 184.911C528.582 184.911 527.958 184.788 527.403 184.543C526.859 184.287 526.427 183.945 526.107 183.519C525.787 183.081 525.616 182.596 525.595 182.063H527.483C527.515 182.436 527.691 182.751 528.011 183.007C528.342 183.252 528.752 183.375 529.243 183.375C529.755 183.375 530.15 183.279 530.427 183.087C530.715 182.884 530.859 182.628 530.859 182.319C530.859 181.988 530.699 181.743 530.379 181.583C530.07 181.423 529.574 181.247 528.891 181.055C528.23 180.873 527.691 180.697 527.275 180.527C526.859 180.356 526.496 180.095 526.187 179.743C525.888 179.391 525.739 178.927 525.739 178.351C525.739 177.881 525.878 177.455 526.155 177.071C526.432 176.676 526.827 176.367 527.339 176.143C527.862 175.919 528.459 175.807 529.131 175.807C530.134 175.807 530.939 176.063 531.547 176.575C532.166 177.076 532.496 177.764 532.539 178.639H530.715C530.683 178.244 530.523 177.929 530.235 177.695C529.947 177.46 529.558 177.343 529.067 177.343C528.587 177.343 528.219 177.433 527.963 177.615C527.707 177.796 527.579 178.036 527.579 178.335C527.579 178.569 527.664 178.767 527.835 178.927C528.006 179.087 528.214 179.215 528.459 179.311C528.704 179.396 529.067 179.508 529.547 179.647C530.187 179.817 530.71 179.993 531.115 180.175C531.531 180.345 531.888 180.601 532.187 180.943C532.486 181.284 532.64 181.737 532.651 182.303C532.651 182.804 532.512 183.252 532.235 183.647C531.958 184.041 531.563 184.351 531.051 184.575C530.55 184.799 529.958 184.911 529.275 184.911ZM536.75 177.439V182.319C536.75 182.649 536.825 182.889 536.974 183.039C537.134 183.177 537.401 183.247 537.774 183.247H538.894V184.767H537.454C536.633 184.767 536.003 184.575 535.566 184.191C535.129 183.807 534.91 183.183 534.91 182.319V177.439H533.87V175.951H534.91V173.759H536.75V175.951H538.894V177.439H536.75ZM539.967 180.319C539.967 179.433 540.148 178.649 540.511 177.967C540.884 177.284 541.386 176.756 542.015 176.383C542.655 175.999 543.359 175.807 544.127 175.807C544.82 175.807 545.423 175.945 545.935 176.223C546.458 176.489 546.874 176.825 547.183 177.231V175.951H549.023V184.767H547.183V183.455C546.874 183.871 546.452 184.217 545.919 184.495C545.386 184.772 544.778 184.911 544.095 184.911C543.338 184.911 542.644 184.719 542.015 184.335C541.386 183.94 540.884 183.396 540.511 182.703C540.148 181.999 539.967 181.204 539.967 180.319ZM547.183 180.351C547.183 179.743 547.055 179.215 546.799 178.767C546.554 178.319 546.228 177.977 545.823 177.743C545.418 177.508 544.98 177.391 544.511 177.391C544.042 177.391 543.604 177.508 543.199 177.743C542.794 177.967 542.463 178.303 542.207 178.751C541.962 179.188 541.839 179.711 541.839 180.319C541.839 180.927 541.962 181.46 542.207 181.919C542.463 182.377 542.794 182.729 543.199 182.975C543.615 183.209 544.052 183.327 544.511 183.327C544.98 183.327 545.418 183.209 545.823 182.975C546.228 182.74 546.554 182.399 546.799 181.951C547.055 181.492 547.183 180.959 547.183 180.351ZM553.243 177.231C553.509 176.783 553.861 176.436 554.299 176.191C554.747 175.935 555.275 175.807 555.883 175.807V177.695H555.419C554.704 177.695 554.16 177.876 553.787 178.239C553.424 178.601 553.243 179.231 553.243 180.127V184.767H551.419V175.951H553.243V177.231ZM559.687 177.439V182.319C559.687 182.649 559.762 182.889 559.911 183.039C560.071 183.177 560.338 183.247 560.711 183.247H561.831V184.767H560.391C559.57 184.767 558.941 184.575 558.503 184.191C558.066 183.807 557.847 183.183 557.847 182.319V177.439H556.807V175.951H557.847V173.759H559.687V175.951H561.831V177.439H559.687Z" fill="#101111"/>
<defs>
<linearGradient id="paint0_linear_259_185" x1="456.526" y1="179.267" x2="575.474" y2="179.267" gradientUnits="userSpaceOnUse">
<stop stop-color="#7A87FB"/>
<stop offset="1" stop-color="#FFD49C"/>
</linearGradient>
<linearGradient id="paint1_linear_259_185" x1="575" y1="176.5" x2="457" y2="179" gradientUnits="userSpaceOnUse">
<stop stop-color="#7A87FB"/>
<stop offset="1" stop-color="#FFD49C"/>
</linearGradient>
</defs>
</svg>
